<svg width="10" height="10" viewBox="0 0 10 10" fill="none" xmlns="http://www.w3.org/2000/svg">
<path d="M5.37964 0C2.82726 0 0.759277 2.06798 0.759277 4.62036C0.759277 7.17274 2.82726 9.24072 5.37964 9.24072C7.93202 9.24072 10 7.17274 10 4.62036C10 2.06798 7.93202 0 5.37964 0ZM5.37964 8.34646C3.32097 8.34646 1.65354 6.67903 1.65354 4.62036C1.65354 2.56169 3.32097 0.894264 5.37964 0.894264C7.43831 0.894264 9.10574 2.56169 9.10574 4.62036C9.10574 6.67903 7.43831 8.34646 5.37964 8.34646ZM6.531 6.40144L4.94927 5.25194C4.89152 5.20908 4.85799 5.14202 4.85799 5.07122V2.01209C4.85799 1.88913 4.95859 1.78853 5.08155 1.78853H5.67773C5.80069 1.78853 5.90129 1.88913 5.90129 2.01209V4.65203L7.14581 5.55748C7.24641 5.63013 7.26691 5.76986 7.19425 5.87047L6.844 6.353C6.77134 6.45174 6.63161 6.4741 6.531 6.40144Z" fill="black"/>
</svg>
